<svg width="285" height="51" viewBox="0 0 285 51" fill="none" xmlns="http://www.w3.org/2000/svg">
<path d="M48.8065 39V7.07991H61.5745C63.8503 7.07991 65.6901 7.53802 67.094 8.45424C68.4979 9.35569 69.525 10.4936 70.1752 11.8679C70.8254 13.2423 71.1505 14.6314 71.1505 16.0353C71.1505 17.8234 70.7441 19.3086 69.9314 20.4908C69.1334 21.673 68.0324 22.4636 66.6285 22.8626V21.7543C68.6235 22.1681 70.1161 23.0917 71.1062 24.5251C72.1111 25.9586 72.6135 27.562 72.6135 29.3353C72.6135 31.2416 72.2589 32.9189 71.5495 34.3672C70.855 35.8154 69.791 36.9533 68.3575 37.7808C66.9241 38.5936 65.1212 39 62.9488 39H48.8065ZM54.9245 33.3253H62.3282C63.141 33.3253 63.8651 33.1554 64.5005 32.8155C65.136 32.4608 65.631 31.9731 65.9857 31.3525C66.3551 30.717 66.5399 29.9708 66.5399 29.1136C66.5399 28.36 66.3847 27.6876 66.0744 27.0965C65.764 26.5054 65.2911 26.0399 64.6557 25.7C64.035 25.3453 63.2592 25.168 62.3282 25.168H54.9245V33.3253ZM54.9245 19.5376H61.4858C62.1656 19.5376 62.7715 19.4194 63.3035 19.1829C63.8355 18.9465 64.2567 18.5844 64.567 18.0968C64.8773 17.5943 65.0325 16.9515 65.0325 16.1683C65.0325 15.1929 64.7296 14.3728 64.1237 13.7078C63.5178 13.0428 62.6385 12.7103 61.4858 12.7103H54.9245V19.5376ZM81.9111 39.665C80.1969 39.665 78.7413 39.3399 77.5442 38.6897C76.362 38.0247 75.4606 37.1454 74.8399 36.0518C74.234 34.9435 73.9311 33.7243 73.9311 32.3943C73.9311 31.286 74.101 30.2737 74.4409 29.3575C74.7808 28.4412 75.3276 27.6359 76.0812 26.9413C76.8497 26.232 77.8768 25.6408 79.1624 25.168C80.0491 24.8428 81.1057 24.5547 82.3323 24.3035C83.5588 24.0522 84.9479 23.8158 86.4996 23.5941C88.0513 23.3577 89.7581 23.0991 91.6201 22.8183L89.4478 24.0153C89.4478 22.5966 89.1079 21.5548 88.4281 20.8898C87.7483 20.2248 86.6104 19.8923 85.0144 19.8923C84.1278 19.8923 83.2042 20.1066 82.2436 20.5351C81.283 20.9637 80.6106 21.7247 80.2264 22.8183L74.7734 21.0893C75.3793 19.1091 76.5172 17.4983 78.1871 16.2569C79.857 15.0156 82.1328 14.3949 85.0144 14.3949C87.1277 14.3949 89.0045 14.72 90.6448 15.3703C92.2851 16.0205 93.5265 17.1436 94.3688 18.7396C94.8417 19.6263 95.1225 20.5129 95.2111 21.3996C95.2998 22.2863 95.3441 23.2764 95.3441 24.37V39H90.0685V34.079L90.8221 35.0987C89.6547 36.7094 88.3912 37.8769 87.0316 38.601C85.6868 39.3103 83.98 39.665 81.9111 39.665ZM83.1968 34.9213C84.3051 34.9213 85.2361 34.7292 85.9898 34.345C86.7582 33.946 87.3641 33.4953 87.8074 32.9928C88.2656 32.4904 88.5759 32.0692 88.7384 31.7293C89.0488 31.0791 89.2261 30.3254 89.2705 29.4683C89.3296 28.5964 89.3591 27.8723 89.3591 27.296L91.1325 27.7393C89.3443 28.0349 87.8961 28.2861 86.7878 28.493C85.6794 28.6851 84.7854 28.8624 84.1056 29.025C83.4258 29.1875 82.8273 29.3649 82.3101 29.557C81.719 29.7934 81.2387 30.052 80.8693 30.3328C80.5146 30.5988 80.2486 30.8944 80.0713 31.2195C79.9087 31.5446 79.8274 31.9066 79.8274 32.3056C79.8274 32.8524 79.9604 33.3253 80.2264 33.7243C80.5072 34.1085 80.8988 34.4041 81.4013 34.611C81.9037 34.8179 82.5022 34.9213 83.1968 34.9213ZM111.083 39.665C108.704 39.665 106.716 39.1108 105.12 38.0025C103.524 36.8942 102.32 35.3868 101.507 33.4805C100.709 31.5741 100.31 29.424 100.31 27.03C100.31 24.636 100.709 22.4858 101.507 20.5794C102.305 18.6731 103.48 17.1658 105.031 16.0574C106.583 14.9491 108.497 14.3949 110.773 14.3949C113.063 14.3949 115.058 14.9417 116.758 16.0353C118.457 17.1288 119.772 18.6288 120.703 20.5351C121.649 22.4267 122.122 24.5916 122.122 27.03C122.122 29.424 121.656 31.5741 120.725 33.4805C119.809 35.3868 118.523 36.8942 116.868 38.0025C115.213 39.1108 113.285 39.665 111.083 39.665ZM99.2902 39V7.07991H105.364V22.5966H104.61V39H99.2902ZM110.108 34.3007C111.408 34.3007 112.472 33.9755 113.3 33.3253C114.127 32.6751 114.74 31.8032 115.139 30.7096C115.538 29.6013 115.738 28.3747 115.738 27.03C115.738 25.7 115.531 24.4882 115.117 23.3946C114.703 22.2863 114.061 21.407 113.189 20.7568C112.332 20.0918 111.231 19.7593 109.886 19.7593C108.63 19.7593 107.61 20.0622 106.827 20.6681C106.058 21.274 105.497 22.1237 105.142 23.2173C104.788 24.3108 104.61 25.5817 104.61 27.03C104.61 28.4782 104.788 29.7491 105.142 30.8426C105.497 31.9362 106.073 32.7859 106.871 33.3918C107.684 33.9977 108.763 34.3007 110.108 34.3007ZM126.554 49.64L131.164 36.9607L131.253 40.6847L120.834 15.0599H127.086L134.09 33.1923H132.672L139.632 15.0599H145.661L132.14 49.64H126.554ZM154.107 39V7.07991H164.437C164.688 7.07991 165.205 7.0873 165.988 7.10207C166.772 7.11685 167.525 7.16857 168.249 7.25724C170.821 7.56758 173.001 8.46163 174.789 9.93941C176.577 11.4172 177.936 13.294 178.867 15.5698C179.798 17.8455 180.264 20.3356 180.264 23.04C180.264 25.7443 179.798 28.2344 178.867 30.5101C177.936 32.7859 176.577 34.6627 174.789 36.1405C173.001 37.6183 170.821 38.5123 168.249 38.8227C167.525 38.9113 166.772 38.9631 165.988 38.9778C165.205 38.9926 164.688 39 164.437 39H154.107ZM160.225 33.3253H164.437C164.836 33.3253 165.375 33.3179 166.055 33.3032C166.735 33.2736 167.348 33.2071 167.895 33.1036C169.284 32.8229 170.414 32.1726 171.286 31.153C172.173 30.1333 172.823 28.9067 173.237 27.4733C173.666 26.0399 173.88 24.5621 173.88 23.04C173.88 21.4439 173.658 19.9292 173.215 18.4958C172.786 17.0623 172.129 15.8505 171.242 14.8604C170.355 13.8703 169.24 13.2423 167.895 12.9763C167.348 12.858 166.735 12.7915 166.055 12.7768C165.375 12.762 164.836 12.7546 164.437 12.7546H160.225V33.3253ZM194.936 39.665C192.483 39.665 190.318 39.1404 188.442 38.0912C186.58 37.0272 185.117 35.5715 184.053 33.7243C183.003 31.8623 182.479 29.7343 182.479 27.3403C182.479 24.7246 182.996 22.4488 184.03 20.5129C185.065 18.5771 186.491 17.0771 188.309 16.0131C190.126 14.9343 192.217 14.3949 194.582 14.3949C197.094 14.3949 199.229 14.986 200.988 16.1683C202.747 17.3505 204.047 19.013 204.889 21.1558C205.732 23.2986 206.027 25.8182 205.776 28.7146H199.813V26.498C199.813 24.0596 199.422 22.3085 198.638 21.2444C197.87 20.1657 196.606 19.6263 194.848 19.6263C192.794 19.6263 191.279 20.2543 190.304 21.5104C189.343 22.7518 188.863 24.5916 188.863 27.03C188.863 29.2614 189.343 30.9904 190.304 32.217C191.279 33.4288 192.705 34.0347 194.582 34.0347C195.764 34.0347 196.776 33.776 197.619 33.2588C198.461 32.7416 199.104 31.9953 199.547 31.02L205.577 32.749C204.675 34.9361 203.249 36.6355 201.298 37.8473C199.362 39.0591 197.242 39.665 194.936 39.665ZM187.001 28.7146V24.237H202.872V28.7146H187.001ZM219.249 50.305C217.889 50.305 216.596 50.0834 215.37 49.64C214.143 49.2115 213.042 48.6056 212.067 47.8224C211.106 47.0539 210.323 46.1525 209.717 45.118L215.303 42.4137C215.687 43.123 216.234 43.6624 216.944 44.0318C217.668 44.4013 218.451 44.586 219.293 44.586C220.195 44.586 221.044 44.4308 221.842 44.1205C222.64 43.825 223.276 43.3742 223.749 42.7683C224.236 42.1772 224.465 41.4383 224.436 40.5517V33.5913H225.19V15.0599H230.465V40.6403C230.465 41.2315 230.436 41.7856 230.377 42.3028C230.332 42.8348 230.244 43.3595 230.111 43.8767C229.726 45.3397 229.01 46.5441 227.96 47.4899C226.926 48.4356 225.655 49.1376 224.148 49.5957C222.64 50.0686 221.007 50.305 219.249 50.305ZM218.717 39.665C216.515 39.665 214.586 39.1108 212.931 38.0025C211.276 36.8942 209.983 35.3868 209.052 33.4805C208.136 31.5741 207.678 29.424 207.678 27.03C207.678 24.5916 208.143 22.4267 209.074 20.5351C210.02 18.6288 211.343 17.1288 213.042 16.0353C214.742 14.9417 216.737 14.3949 219.027 14.3949C221.303 14.3949 223.217 14.9491 224.768 16.0574C226.32 17.1658 227.495 18.6731 228.293 20.5794C229.091 22.4858 229.49 24.636 229.49 27.03C229.49 29.424 229.084 31.5741 228.271 33.4805C227.473 35.3868 226.276 36.8942 224.68 38.0025C223.084 39.1108 221.096 39.665 218.717 39.665ZM219.692 34.3007C221.037 34.3007 222.108 33.9977 222.906 33.3918C223.719 32.7859 224.303 31.9362 224.658 30.8426C225.012 29.7491 225.19 28.4782 225.19 27.03C225.19 25.5817 225.012 24.3108 224.658 23.2173C224.303 22.1237 223.734 21.274 222.951 20.6681C222.182 20.0622 221.17 19.7593 219.914 19.7593C218.569 19.7593 217.461 20.0918 216.589 20.7568C215.732 21.407 215.096 22.2863 214.683 23.3946C214.269 24.4882 214.062 25.7 214.062 27.03C214.062 28.3747 214.261 29.6013 214.66 30.7096C215.059 31.8032 215.673 32.6751 216.5 33.3253C217.328 33.9755 218.392 34.3007 219.692 34.3007ZM246.027 39.665C243.574 39.665 241.409 39.1404 239.532 38.0912C237.67 37.0272 236.207 35.5715 235.143 33.7243C234.094 31.8623 233.57 29.7343 233.57 27.3403C233.57 24.7246 234.087 22.4488 235.121 20.5129C236.156 18.5771 237.582 17.0771 239.399 16.0131C241.217 14.9343 243.308 14.3949 245.673 14.3949C248.185 14.3949 250.32 14.986 252.079 16.1683C253.837 17.3505 255.138 19.013 255.98 21.1558C256.823 23.2986 257.118 25.8182 256.867 28.7146H250.904V26.498C250.904 24.0596 250.512 22.3085 249.729 21.2444C248.961 20.1657 247.697 19.6263 245.939 19.6263C243.885 19.6263 242.37 20.2543 241.394 21.5104C240.434 22.7518 239.954 24.5916 239.954 27.03C239.954 29.2614 240.434 30.9904 241.394 32.217C242.37 33.4288 243.796 34.0347 245.673 34.0347C246.855 34.0347 247.867 33.776 248.71 33.2588C249.552 32.7416 250.195 31.9953 250.638 31.02L256.667 32.749C255.766 34.9361 254.34 36.6355 252.389 37.8473C250.453 39.0591 248.333 39.665 246.027 39.665ZM238.092 28.7146V24.237H253.963V28.7146H238.092ZM275.764 39V27.695C275.764 27.1482 275.734 26.4536 275.675 25.6113C275.616 24.7542 275.432 23.8971 275.121 23.04C274.811 22.1828 274.301 21.4661 273.592 20.8898C272.897 20.3134 271.907 20.0253 270.621 20.0253C270.104 20.0253 269.55 20.1066 268.959 20.2691C268.368 20.4317 267.814 20.7494 267.296 21.2223C266.779 21.6804 266.351 22.3602 266.011 23.2616C265.686 24.1631 265.523 25.3601 265.523 26.8526L262.065 25.2123C262.065 23.3207 262.449 21.5474 263.218 19.8923C263.986 18.2372 265.139 16.8998 266.676 15.8801C268.227 14.8604 270.178 14.3506 272.528 14.3506C274.404 14.3506 275.934 14.6683 277.116 15.3038C278.298 15.9392 279.215 16.7446 279.865 17.7199C280.53 18.6953 281.003 19.7149 281.284 20.7789C281.564 21.8282 281.734 22.7887 281.793 23.6606C281.852 24.5325 281.882 25.168 281.882 25.567V39H275.764ZM259.405 39V15.0599H264.769V22.9956H265.523V39H259.405Z" fill="black" fill-opacity="0.8"/>
<path d="M0 7H40.9441V15.9441H0V7Z" fill="black" fill-opacity="0.8"/>
<path d="M0 18.528H40.9441V27.4721H0V18.528Z" fill="black" fill-opacity="0.8"/>
<path d="M0 30.0559H18.2857V39H0V30.0559Z" fill="black" fill-opacity="0.8"/>
<path d="M22.6584 30.0559H40.9441V39H22.6584V30.0559Z" fill="black" fill-opacity="0.8"/>
</svg>
